<svg width="60" height="56" viewBox="0 0 60 56" fill="none" xmlns="http://www.w3.org/2000/svg">
<g clip-path="url(#clip0_8_421)">
<path d="M58.9953 52.1279H17.0677C16.5129 52.1279 16.063 52.5774 16.063 53.1318V54.8366C16.063 55.391 16.5129 55.8405 17.0677 55.8405H58.9953C59.5502 55.8405 60 55.391 60 54.8366V53.1318C60 52.5774 59.5502 52.1279 58.9953 52.1279Z" fill="white"/>
<path d="M2.26921 20.2627H11.9039C13.1568 20.2627 14.1731 21.2792 14.1731 22.5301V53.7315C14.1731 54.9824 13.1568 55.999 11.9039 55.999H2.26921C1.01734 55.999 0 54.9835 0 53.7315V22.5301C0 21.2792 1.01629 20.2627 2.26921 20.2627Z" fill="white"/>
<path d="M58.3266 20.144H57.4023V0H19.3707V20.144H17.7375C16.8163 20.144 16.063 20.8966 16.063 21.8171V49.5108C16.063 50.4302 16.8163 51.1828 17.7375 51.1828H58.3266C59.2468 51.1828 60.0011 50.4302 60.0011 49.5108V21.8171C60.0011 20.8977 59.2478 20.144 58.3266 20.144ZM21.435 2.06264H55.338V20.0891H21.435V2.06264ZM27.8951 48.0804C27.8951 48.2641 27.744 48.4151 27.5602 48.4151H21.7519C21.5681 48.4151 21.417 48.2652 21.417 48.0804V46.6564C21.417 46.4728 21.5681 46.3218 21.7519 46.3218H27.5602C27.744 46.3218 27.8951 46.4728 27.8951 46.6564V48.0804ZM27.8951 43.2479C27.8951 43.4316 27.744 43.5825 27.5602 43.5825H21.7519C21.5681 43.5825 21.417 43.4326 21.417 43.2479V41.8239C21.417 41.6402 21.5681 41.4893 21.7519 41.4893H27.5602C27.744 41.4893 27.8951 41.6402 27.8951 41.8239V43.2479ZM27.8951 38.4143C27.8951 38.598 27.744 38.7489 27.5602 38.7489H21.7519C21.5681 38.7489 21.417 38.598 21.417 38.4143V36.9903C21.417 36.8066 21.5681 36.6557 21.7519 36.6557H27.5602C27.744 36.6557 27.8951 36.8066 27.8951 36.9903V38.4143ZM27.8951 33.5807C27.8951 33.7644 27.744 33.9154 27.5602 33.9154H21.7519C21.5681 33.9154 21.417 33.7644 21.417 33.5807V32.1567C21.417 31.973 21.5681 31.8221 21.7519 31.8221H27.5602C27.744 31.8221 27.8951 31.973 27.8951 32.1567V33.5807ZM36.7828 48.0804C36.7828 48.2641 36.6318 48.4151 36.4479 48.4151H30.6407C30.4569 48.4151 30.3059 48.2652 30.3059 48.0804V46.6564C30.3059 46.4728 30.4569 46.3218 30.6407 46.3218H36.4479C36.6318 46.3218 36.7828 46.4728 36.7828 46.6564V48.0804ZM36.7828 43.2479C36.7828 43.4316 36.6318 43.5825 36.4479 43.5825H30.6407C30.4569 43.5825 30.3059 43.4326 30.3059 43.2479V41.8239C30.3059 41.6402 30.4569 41.4893 30.6407 41.4893H36.4479C36.6318 41.4893 36.7828 41.6402 36.7828 41.8239V43.2479ZM36.7828 38.4143C36.7828 38.598 36.6318 38.7489 36.4479 38.7489H30.6407C30.4569 38.7489 30.3059 38.598 30.3059 38.4143V36.9903C30.3059 36.8066 30.4569 36.6557 30.6407 36.6557H36.4479C36.6318 36.6557 36.7828 36.8066 36.7828 36.9903V38.4143ZM36.7828 33.5807C36.7828 33.7644 36.6318 33.9154 36.4479 33.9154H30.6407C30.4569 33.9154 30.3059 33.7644 30.3059 33.5807V32.1567C30.3059 31.973 30.4569 31.8221 30.6407 31.8221H36.4479C36.6318 31.8221 36.7828 31.973 36.7828 32.1567V33.5807ZM45.6716 48.0804C45.6716 48.2641 45.5206 48.4151 45.3368 48.4151H39.5296C39.3457 48.4151 39.1947 48.2652 39.1947 48.0804V46.6564C39.1947 46.4728 39.3447 46.3218 39.5296 46.3218H45.3368C45.5206 46.3218 45.6716 46.4728 45.6716 46.6564V48.0804ZM45.6716 43.2479C45.6716 43.4316 45.5206 43.5825 45.3368 43.5825H39.5296C39.3457 43.5825 39.1947 43.4326 39.1947 43.2479V41.8239C39.1947 41.6402 39.3447 41.4893 39.5296 41.4893H45.3368C45.5206 41.4893 45.6716 41.6402 45.6716 41.8239V43.2479ZM45.6716 38.4143C45.6716 38.598 45.5206 38.7489 45.3368 38.7489H39.5296C39.3457 38.7489 39.1947 38.598 39.1947 38.4143V36.9903C39.1947 36.8066 39.3447 36.6557 39.5296 36.6557H45.3368C45.5206 36.6557 45.6716 36.8066 45.6716 36.9903V38.4143ZM45.6716 33.5807C45.6716 33.7644 45.5206 33.9154 45.3368 33.9154H39.5296C39.3457 33.9154 39.1947 33.7644 39.1947 33.5807V32.1567C39.1947 31.973 39.3447 31.8221 39.5296 31.8221H45.3368C45.5206 31.8221 45.6716 31.973 45.6716 32.1567V33.5807ZM54.5594 48.0804C54.5594 48.2641 54.4083 48.4151 54.2245 48.4151H48.4173C48.2335 48.4151 48.0824 48.2652 48.0824 48.0804V46.6564C48.0824 46.4728 48.2335 46.3218 48.4173 46.3218H54.2245C54.4083 46.3218 54.5594 46.4728 54.5594 46.6564V48.0804ZM54.5594 43.2479C54.5594 43.4316 54.4083 43.5825 54.2245 43.5825H48.4173C48.2335 43.5825 48.0824 43.4326 48.0824 43.2479V41.8239C48.0824 41.6402 48.2335 41.4893 48.4173 41.4893H54.2245C54.4083 41.4893 54.5594 41.6402 54.5594 41.8239V43.2479ZM54.5594 38.4143C54.5594 38.598 54.4083 38.7489 54.2245 38.7489H48.4173C48.2335 38.7489 48.0824 38.598 48.0824 38.4143V36.9903C48.0824 36.8066 48.2335 36.6557 48.4173 36.6557H54.2245C54.4083 36.6557 54.5594 36.8066 54.5594 36.9903V38.4143ZM54.5594 33.5807C54.5594 33.7644 54.4083 33.9154 54.2245 33.9154H48.4173C48.2335 33.9154 48.0824 33.7644 48.0824 33.5807V32.1567C48.0824 31.973 48.2335 31.8221 48.4173 31.8221H54.2245C54.4083 31.8221 54.5594 31.973 54.5594 32.1567V33.5807ZM55.6306 28.878H20.0785V23.3309H55.6296V28.878H55.6306Z" fill="white"/>
<path d="M37.8551 5.03857H23.9767V7.63535H37.8551V5.03857Z" fill="white"/>
<path d="M48.2313 9.75928H23.9767V12.3561H48.2313V9.75928Z" fill="white"/>
<path d="M45.0515 14.48H23.9767V17.0768H45.0515V14.48Z" fill="white"/>
</g>
<defs>
<clipPath id="clip0_8_421">
<rect width="60" height="56" fill="white"/>
</clipPath>
</defs>
</svg>
