<svg width="34" height="19" viewBox="0 0 34 19" fill="none" xmlns="http://www.w3.org/2000/svg">
<g clip-path="url(#clip0_2_51)">
<path d="M31.9007 3.57569C28.9993 -0.0166359 23.9952 -0.978062 20.0059 1.03596L28.2832 11.2813C28.9453 12.1018 28.8098 13.2965 27.9785 13.9501C27.1473 14.6037 25.9371 14.4699 25.275 13.6493L17.1776 3.6266C17.1656 3.61239 17.1548 3.597 17.1428 3.58279C17.132 3.56977 17.1224 3.55793 17.1116 3.5449L16.9977 3.404C16.9977 3.404 16.9977 3.404 16.9965 3.40637C13.6536 -0.536421 7.71643 -1.14382 3.62274 2.07908C-0.530917 5.34935 -1.2134 11.3239 2.09945 15.4242C5.0009 19.0165 10.005 19.9779 13.9943 17.9639L5.71696 7.71858C5.05487 6.89805 5.19041 5.70337 6.02162 5.04979C6.85283 4.39621 8.06306 4.53001 8.72515 5.35054L16.8226 15.3745C16.8346 15.3887 16.8454 15.4041 16.8573 15.4183C16.8681 15.4313 16.8777 15.4431 16.8885 15.4562L17.0025 15.5971C17.0025 15.5971 17.0025 15.5971 17.0037 15.5947C20.3465 19.5375 26.2837 20.1449 30.3774 16.922C34.5311 13.6517 35.2136 7.67714 31.9007 3.57687V3.57569Z" fill="#4F82C3"/>
</g>
<defs>
<clipPath id="clip0_2_51">
<rect width="34" height="19" fill="white"/>
</clipPath>
</defs>
</svg>
