<svg width="56" height="56" viewBox="0 0 56 56" fill="none" xmlns="http://www.w3.org/2000/svg">
<path d="M43.3408 56C40.362 56 37.178 55.1324 33.876 53.4209C27.7711 50.2581 23.5123 47.7851 15.865 40.1381C8.21869 32.4911 5.74688 28.2319 2.58343 22.1255C-3.03708 11.2774 2.01559 4.94996 3.6985 3.26984L5.56415 1.40403C6.48174 0.485367 7.54474 0 8.6372 0C9.82792 0 10.9607 0.563969 11.9136 1.63197C13.6565 3.58523 17.1412 8.76412 18.4576 10.9335C19.9028 13.3142 19.5462 16.2411 17.5715 18.215L13.9492 21.8376C16.5104 26.3002 19.2131 29.853 22.6801 33.3214C26.1481 36.7887 29.7006 39.4906 34.1629 42.0531L37.7851 38.4305C38.9237 37.2917 40.4121 36.6639 41.9752 36.6639C43.049 36.6639 44.1179 36.9685 45.0669 37.5442C47.2371 38.8608 52.4155 42.3468 54.3676 44.0888C55.4012 45.0124 55.9651 46.1089 55.9985 47.2614C56.0309 48.3913 55.5456 49.4898 54.5965 50.4389L52.7446 52.291C51.6207 53.416 48.4848 56 43.3427 56H43.3418H43.3408Z" fill="white"/>
</svg>
