<svg width="66" height="47" viewBox="0 0 66 47" fill="none" xmlns="http://www.w3.org/2000/svg">
<g clip-path="url(#clip0_8_431)">
<path d="M57.1139 47.0001L44.3328 24.1413L65.9989 11.1519V43.1897C65.9989 45.2904 64.3053 47.0001 62.2238 47.0001H57.1139Z" fill="white"/>
<path d="M3.77616 47.0001C1.69469 47.0001 0.00109863 45.2904 0.00109863 43.1897V11.1519L21.6672 24.1413L8.88607 47.0001H3.77616Z" fill="white"/>
<path d="M32.9905 27.1695C32.2683 27.1448 31.4238 26.6246 30.6073 26.1209L30.5829 26.1056L0.00146484 7.77227V3.8151C0.00146484 1.71204 1.69506 0 3.77653 0H62.2254C64.3069 0 66.0005 1.71204 66.0005 3.8151V7.77227L35.4493 26.088C35.2292 26.2043 35.0172 26.324 34.8122 26.4391C34.1355 26.8207 33.5519 27.1507 33.0126 27.1695H33.001H32.9905Z" fill="white"/>
<path d="M12.1824 47L24.14 25.623L30.9517 29.707L30.9785 29.7211C31.5795 30.0253 32.2376 30.3094 32.9749 30.3329H33.0017H33.0285C33.7169 30.3106 34.3005 30.0828 35.0203 29.7235L35.0482 29.7094L41.8622 25.6242L53.8199 47.0012H12.1824V47Z" fill="white"/>
</g>
<defs>
<clipPath id="clip0_8_431">
<rect width="66" height="47" fill="white"/>
</clipPath>
</defs>
</svg>
